<svg xmlns="http://www.w3.org/2000/svg" viewBox="0 0 760 64" preserveAspectRatio="none"><defs><linearGradient id="metal" x1="0" x2="1"><stop offset="0" stop-color="#101114"/><stop offset=".45" stop-color="#4a4a4d"/><stop offset=".62" stop-color="#f0f0f0"/><stop offset=".76" stop-color="#16171b"/><stop offset="1" stop-color="#08090b"/></linearGradient></defs><g fill="none" stroke="url(#metal)" stroke-width="6.5" stroke-linecap="round"><path d="M20 64V18c0-11 16-11 16 0v46"/><path d="M58 64V18c0-11 16-11 16 0v46"/><path d="M96 64V18c0-11 16-11 16 0v46"/><path d="M134 64V18c0-11 16-11 16 0v46"/><path d="M172 64V18c0-11 16-11 16 0v46"/><path d="M210 64V18c0-11 16-11 16 0v46"/><path d="M248 64V18c0-11 16-11 16 0v46"/><path d="M286 64V18c0-11 16-11 16 0v46"/><path d="M324 64V18c0-11 16-11 16 0v46"/><path d="M362 64V18c0-11 16-11 16 0v46"/><path d="M400 64V18c0-11 16-11 16 0v46"/><path d="M438 64V18c0-11 16-11 16 0v46"/><path d="M476 64V18c0-11 16-11 16 0v46"/><path d="M514 64V18c0-11 16-11 16 0v46"/><path d="M552 64V18c0-11 16-11 16 0v46"/><path d="M590 64V18c0-11 16-11 16 0v46"/><path d="M628 64V18c0-11 16-11 16 0v46"/><path d="M666 64V18c0-11 16-11 16 0v46"/><path d="M704 64V18c0-11 16-11 16 0v46"/><path d="M742 64V18c0-11 16-11 16 0v46"/></g></svg>