<svg xmlns="http://www.w3.org/2000/svg" viewBox="0 0 100.57 16.31" preserveAspectRatio="none"><defs><linearGradient id="s" x1="0" x2="1"><stop offset="0" stop-color="#0f1014"/><stop offset=".45" stop-color="#f2f2f2"/><stop offset=".72" stop-color="#111217"/></linearGradient></defs><g fill="none" stroke="url(#s)" stroke-width="1.15" stroke-linecap="round"><path d="M1.5 15.7V1.4"/><path d="M6.7 15.7V1.4"/><path d="M11.9 15.7V1.4"/><path d="M17.1 15.7V1.4"/><path d="M22.3 15.7V1.4"/><path d="M27.5 15.7V1.4"/><path d="M32.7 15.7V1.4"/><path d="M37.9 15.7V1.4"/><path d="M43.1 15.7V1.4"/><path d="M48.3 15.7V1.4"/><path d="M53.5 15.7V1.4"/><path d="M58.7 15.7V1.4"/><path d="M63.9 15.7V1.4"/><path d="M69.1 15.7V1.4"/><path d="M74.3 15.7V1.4"/><path d="M79.5 15.7V1.4"/><path d="M84.7 15.7V1.4"/><path d="M89.9 15.7V1.4"/><path d="M95.1 15.7V1.4"/><path d="M100 15.7V1.4"/></g><g fill="#241f1a" opacity=".96"><rect x=".92" y="10.8" width="1.15" height="5.15" rx=".55"/><rect x="6.12" y="10.8" width="1.15" height="5.15" rx=".55"/><rect x="11.32" y="10.8" width="1.15" height="5.15" rx=".55"/><rect x="16.52" y="10.8" width="1.15" height="5.15" rx=".55"/><rect x="21.72" y="10.8" width="1.15" height="5.15" rx=".55"/><rect x="26.92" y="10.8" width="1.15" height="5.15" rx=".55"/><rect x="32.12" y="10.8" width="1.15" height="5.15" rx=".55"/><rect x="37.32" y="10.8" width="1.15" height="5.15" rx=".55"/><rect x="42.52" y="10.8" width="1.15" height="5.15" rx=".55"/><rect x="47.72" y="10.8" width="1.15" height="5.15" rx=".55"/><rect x="52.92" y="10.8" width="1.15" height="5.15" rx=".55"/><rect x="58.12" y="10.8" width="1.15" height="5.15" rx=".55"/><rect x="63.32" y="10.8" width="1.15" height="5.15" rx=".55"/><rect x="68.52" y="10.8" width="1.15" height="5.15" rx=".55"/><rect x="73.72" y="10.8" width="1.15" height="5.15" rx=".55"/><rect x="78.92" y="10.8" width="1.15" height="5.15" rx=".55"/><rect x="84.12" y="10.8" width="1.15" height="5.15" rx=".55"/><rect x="89.32" y="10.8" width="1.15" height="5.15" rx=".55"/><rect x="94.52" y="10.8" width="1.15" height="5.15" rx=".55"/><rect x="99.42" y="10.8" width="1.15" height="5.15" rx=".55"/></g></svg>